<svg xmlns="http://www.w3.org/2000/svg" viewBox="0 0 2047 2048" width="2047" height="2048"><rect width="2047" height="2048" fill="#fff"/><path fill="#5492ff" fill-rule="evenodd" d="M1845 1380L1834 1376L1819 1380L1812 1389L1813 1399L1823 1406L1834 1406L1841 1403L1846 1399L1849 1393L1849 1386ZM1794 1252L1778 1252L1773 1255L1755 1367L1747 1381L1742 1385L1731 1389L1716 1388L1707 1381L1705 1376L1705 1365L1723 1256L1718 1252L1703 1252L1698 1255L1679 1366L1679 1378L1681 1385L1691 1399L1708 1407L1734 1408L1755 1401L1764 1395L1773 1385L1781 1365L1798 1263L1798 1255ZM1561 1252L1543 1252L1538 1256L1504 1312L1488 1255L1484 1252L1466 1252L1462 1255L1463 1264L1487 1336L1476 1401L1479 1406L1499 1406L1502 1403L1513 1338L1563 1261L1565 1256ZM1285 1253L1283 1255L1259 1404L1261 1406L1282 1406L1284 1404L1295 1340L1316 1339L1334 1404L1336 1406L1357 1406L1359 1404L1359 1398L1341 1337L1357 1328L1369 1315L1376 1298L1376 1280L1374 1274L1362 1259L1347 1253ZM1307 1271L1337 1272L1342 1274L1349 1281L1351 1289L1349 1301L1346 1307L1337 1316L1327 1320L1298 1319ZM1149 1253L1062 1252L1058 1255L1034 1397L1035 1405L1056 1406L1059 1404L1069 1342L1071 1339L1110 1339L1115 1335L1117 1324L1114 1320L1075 1320L1073 1318L1081 1272L1146 1271L1149 1269L1151 1262L1151 1255ZM740 1252L735 1258L712 1404L714 1406L734 1406L737 1403L754 1304L787 1404L789 1406L812 1406L815 1402L838 1255L835 1252L817 1252L813 1255L798 1350L796 1354L762 1253ZM704 1252L686 1252L682 1255L658 1397L658 1404L660 1406L680 1406L684 1401L707 1262L707 1255ZM668 1252L573 1252L568 1256L567 1269L569 1271L602 1271L604 1273L582 1401L585 1406L603 1407L608 1403L629 1273L631 1271L668 1271L671 1268L672 1255ZM466 1252L462 1256L438 1403L441 1406L461 1406L464 1403L475 1339L519 1339L520 1341L510 1396L510 1404L512 1406L532 1406L536 1399L559 1255L556 1252L537 1252L534 1254L524 1317L522 1319L479 1319L478 1314L488 1256L485 1252ZM307 1252L289 1252L285 1256L261 1403L264 1406L284 1406L287 1403L311 1258L310 1254ZM274 1253L187 1252L183 1255L159 1397L160 1405L183 1405L185 1401L194 1342L196 1339L235 1339L240 1335L241 1322L239 1320L200 1320L198 1318L206 1272L271 1271L275 1267L276 1255ZM1884 1257L1873 1252L1861 1250L1841 1252L1823 1260L1810 1274L1806 1282L1803 1296L1804 1300L1807 1302L1826 1302L1829 1298L1830 1289L1835 1279L1847 1271L1861 1271L1869 1277L1871 1282L1870 1294L1865 1303L1858 1310L1839 1323L1829 1334L1823 1354L1823 1362L1825 1364L1847 1363L1850 1348L1854 1340L1881 1320L1891 1308L1896 1295L1897 1278L1892 1265ZM1645 1254L1622 1250L1598 1254L1580 1264L1568 1280L1554 1356L1552 1379L1557 1392L1572 1404L1587 1408L1608 1408L1621 1405L1639 1395L1651 1380L1654 1371L1665 1306L1667 1277L1661 1265L1656 1260ZM1627 1270L1636 1274L1642 1284L1629 1368L1625 1377L1618 1384L1610 1388L1593 1389L1584 1385L1578 1377L1578 1367L1591 1289L1595 1281L1604 1273L1613 1270ZM1230 1254L1207 1250L1186 1253L1170 1260L1156 1274L1150 1289L1137 1367L1137 1380L1139 1387L1153 1402L1171 1408L1198 1407L1218 1399L1233 1385L1238 1374L1252 1291L1252 1278L1246 1265L1241 1260ZM1215 1271L1224 1277L1227 1289L1213 1371L1210 1377L1203 1384L1190 1389L1174 1388L1164 1380L1163 1366L1177 1286L1179 1282L1191 1272L1198 1270ZM939 1254L920 1250L894 1253L876 1262L864 1276L859 1293L846 1373L847 1383L851 1392L862 1402L881 1408L907 1407L927 1399L934 1394L942 1384L947 1372L953 1329L950 1326L903 1326L900 1329L898 1339L900 1344L925 1346L921 1372L918 1378L910 1385L898 1389L888 1389L878 1385L872 1376L886 1287L893 1276L906 1270L924 1271L931 1275L935 1282L933 1295L934 1302L955 1303L958 1301L961 1284L958 1270L950 1260ZM413 1255L392 1250L369 1252L353 1258L337 1273L332 1284L318 1367L319 1386L322 1392L335 1403L353 1408L372 1408L382 1406L400 1398L414 1383L418 1372L424 1337L424 1328L422 1326L373 1327L370 1335L371 1344L396 1346L391 1375L384 1383L370 1389L355 1388L349 1385L344 1378L345 1360L357 1288L360 1281L367 1274L377 1270L392 1270L398 1272L406 1281L404 1300L407 1303L426 1303L429 1301L432 1286L430 1272L426 1265ZM1409 1022L1394 1126L1393 1148L1396 1155L1404 1163L1411 1166L1829 1168L1837 1164L1846 1152L1862 1040L1862 1027L1858 1018L1846 1009L1779 1007L1427 1006L1417 1011ZM1439 842L1424 950L1424 964L1429 974L1440 982L1812 983L1825 977L1833 962L1848 854L1848 841L1844 833L1837 826L1830 823L1463 822L1450 826L1443 833ZM1475 653L1459 774L1463 785L1468 790L1478 795L1891 798L1905 792L1909 788L1913 779L1929 665L1929 658L1925 648L1920 642L1913 638L1845 636L1493 635L1482 641ZM919 639L912 646L908 658L841 1143L842 1153L846 1161L854 1168L864 1171L979 1171L991 1167L1000 1157L1003 1146L1024 986L1026 983L1238 983L1239 985L1217 1139L1217 1152L1222 1162L1228 1167L1239 1171L1355 1171L1369 1165L1376 1155L1379 1140L1445 662L1444 652L1437 641L1425 635L1303 635L1297 637L1288 645L1284 654L1262 819L1260 822L1048 822L1049 804L1069 667L1069 653L1065 645L1059 639L1050 635L928 635ZM365 640L357 651L341 764L341 776L343 782L367 807L578 1009L325 1010L315 1014L308 1021L303 1037L289 1140L289 1151L293 1160L300 1167L312 1171L802 1171L814 1167L822 1158L825 1150L840 1041L840 1030L837 1022L602 797L604 795L858 795L865 792L874 783L877 773L892 665L892 655L887 644L882 639L873 635L375 635ZM329 636L204 635L191 642L186 650L117 1143L120 1158L132 1169L140 1171L256 1171L267 1167L274 1160L277 1154L345 666L345 654L343 648L335 639Z"/></svg>